<?xml version="1.0" encoding="UTF-8"?>
<!-- Created with Inkscape (http://www.inkscape.org/) -->
<svg width="92.595mm" height="22.599mm" version="1.1" viewBox="0 0 92.595 22.599" xmlns="http://www.w3.org/2000/svg" xmlns:cc="http://creativecommons.org/ns#" xmlns:dc="http://purl.org/dc/elements/1.1/" xmlns:rdf="http://www.w3.org/1999/02/22-rdf-syntax-ns#">
 <title>Komayō</title>
 <g transform="translate(-56.621 -142.87)">
  <g transform="translate(43.795 99.669)" stroke-width="5.36">
   <g transform="matrix(.59947 0 0 .59947 -2.8977 -10.163)" fill="#000">
    <path d="m51.74 118.65h-7.0966c0-0.66553-1.2226-2.9587-3.6677-6.8796-2.6043-4.1813-4.4489-6.2719-5.534-6.2719h-0.65106c0 3.2987 0.07957 7.6826 0.23872 13.152h-6.12c0.18808-4.3694 0.28213-9.2958 0.28213-14.779 0-5.2664-0.09404-9.7587-0.28213-13.477h6.12c-0.15915 4.0077-0.23872 7.7694-0.23872 11.285h0.47745c0.6366 0 2.2426-1.7796 4.8179-5.3387 2.503-3.4579 3.2065-5.44 3.2065-5.9464h7.0152c0 0.47745-1.3238 2.2787-3.9715 5.4038-2.7345 3.2264-4.7311 5.2809-5.9898 6.1634v0.32553c1.4757 0.76681 3.7979 3.6243 6.9664 8.5724 2.9515 4.6008 4.4272 7.1979 4.4272 7.7911z" aria-label="K"/>
    <path d="m75.698 107.04q0.8975 5.3948-1.915 8.9868t-7.3082 4.3399q-4.2816 0.71231-7.8024-1.54-3.5243-2.2737-4.3613-7.3046-0.90107-5.4162 1.9293-9.0331 2.8303-3.6169 7.326-4.3649 4.2602-0.70874 7.7667 1.59 3.5243 2.2737 4.3649 7.326zm-5.4806 1.5718q-0.51642-3.1042-2.3212-4.9599-1.8083-1.8772-4.1418-1.489-2.2692 0.37753-3.3759 2.5857-1.0853 2.2046-0.59377 5.1589 0.51642 3.1041 2.3248 4.9813 1.8048 1.8558 4.1382 1.4676 2.2692-0.37752 3.3545-2.5821 1.1067-2.2081 0.61518-5.1624z" aria-label="o"/>
    <path d="m112 117.39h-5.7511c0.30383-3.6604 0.45574-7.2196 0.45574-10.677 0-2.5898-0.33277-4.2826-0.9983-5.0783-0.66553-0.79574-1.7289-1.1936-3.1902-1.1936-1.1719 0-2.4089 0.42681-3.7111 1.2804-0.05787 1.8085-0.08681 3.4289-0.08681 4.8613 0 2.4162 0.0434 6.0187 0.13021 10.808h-5.8162c0.3183-3.9643 0.47745-7.82 0.47745-11.567 0-1.9387-0.27489-3.3204-0.82468-4.1451-0.53532-0.82468-1.6566-1.237-3.3638-1.237-1.577 0-2.8864 0.52808-3.9281 1.5842 0.07234 5.7294 0.10851 10.851 0.10851 15.365h-5.8379c0.26043-4.514 0.39064-8.0732 0.39064-10.677 0-3.3855-0.58049-6.0023-1.2894-9.1419l5.7818-1.2534 0.36894 2.3004h0.34723c1.8809-1.7072 4.0004-2.5609 6.3587-2.5609 2.9515 0 5.0277 0.85362 6.2285 2.5609h0.34724c2.1413-1.7072 4.2609-2.5609 6.3587-2.5609 2.4596 0 4.3115 0.53532 5.5558 1.606 1.2587 1.0562 1.8881 2.9804 1.8881 5.7728 0 0.27489-0.0145 0.80298-0.0434 1.5843-0.0289 0.76681-0.0434 1.2877-0.0434 1.5626 0 2.4162 0.0289 6.0187 0.0868 10.808z" aria-label="m"/>
    <path d="m133.28 116.5-4.9831 0.51224c-0.23644-0.60575-0.49367-1.4514-0.49768-1.9433l-0.28211 2e-3c-1.5803 1.373-3.7232 2.0705-6.4287 2.0926-1.8084 0.0147-3.3172-0.47212-4.5261-1.4606-1.1946-1.003-1.7987-2.3365-1.8123-4.0002-0.0179-2.1991 0.89329-4.0078 2.7337-5.4263 1.8549-1.4186 5.1112-2.1903 9.7691-2.3152 0.0268-0.26066 0.0393-0.50673 0.0374-0.7382-0.0127-1.5625-0.39728-2.5866-1.1536-3.0724-0.75645-0.50022-2.1402-0.74213-4.1512-0.72571-2.1846 0.01783-4.3162 0.32461-6.3948 0.92033l0.44482-3.997c1.962-0.69604 4.7371-1.0587 8.325-1.088 2.6186-0.02138 4.6414 0.51191 6.0682 1.5999 1.4413 1.0878 2.1731 3.0062 2.1956 5.755 5e-3 0.60764-0.0152 1.7146-0.0597 3.321-0.0303 1.6063-0.0432 2.677-0.0389 3.2123 0.0245 2.9948 0.27597 5.4452 0.75451 7.3511zm-5.8311-4.4666c-0.10275-1.9524-0.15991-3.6375-0.17149-5.0554-4.9334 0.0403-7.39 1.3118-7.3695 3.8148 0.0141 1.7216 1.1062 2.5736 3.2763 2.5559 1.7072-0.0139 3.1288-0.45236 4.2647-1.3153z" aria-label="a"/>
    <path d="m156.15 96.42c0 0.94043-1.0345 3.9208-3.1034 8.9413-2.3583 5.7728-3.8123 9.7081-4.3621 11.806-0.94043 3.617-2.2064 6.1128-3.7979 7.4872-1.5336 1.3311-3.834 1.9966-6.9013 1.9966l-3.0172 0.0737c1.794 0 5.2593-2.9949 6.4168-4.0222 1.1574-1.0128 2.3298-4.1537 2.3298-5.8609 0-1.7217-1.3021-5.4834-3.9064-11.285-2.6043-5.8162-3.9064-8.8617-3.9064-9.1366h6.706c0 0.50638 0.6583 2.9587 1.9749 7.357s1.9749 7.0894 1.9749 8.0732h0.30383c0-0.83915 0.59319-3.3132 1.7796-7.4221 1.2008-4.1234 1.8013-6.7928 1.8013-8.0081z" aria-label="y"/>
    <path d="m180.69 109.66c0 3.646-1.1213 6.4962-3.3638 8.5506-2.2426 2.0545-4.883 2.6942-7.9213 2.6942-2.8936 0-5.3749-0.54572-7.4438-2.4121-2.0689-1.8808-3.1034-4.5213-3.1034-7.9213 0-3.6604 1.1285-6.5251 3.3855-8.594s4.9047-3.1034 7.943-3.1034c2.8792 0 5.346 0.94766 7.4004 2.843 2.0689 1.8808 3.1034 4.5285 3.1034 7.943zm-5.6643 0.65107c0-2.0979-0.49192-3.8558-1.4758-5.2736-0.98383-1.4323-2.2643-2.1485-3.8413-2.1485-1.5336 0-2.7851 0.66553-3.7545 1.9966-0.95489 1.3311-1.4323 2.9949-1.4323 4.9915 0 2.0979 0.49191 3.863 1.4757 5.2953 0.98383 1.4179 2.3288 1.8039 3.9059 1.8039 1.5336 0 2.7133-0.34264 3.6682-1.6737 0.96937-1.3311 1.454-2.9949 1.454-4.9915zm0.71617-18.837-2e-3 3.7762h-13.668l0.0531-3.7762z" aria-label="ō"/>
   </g>
   <g transform="matrix(.59947 0 0 .59947 -4.5041 -10.983)" fill="#ccc">
    <path d="m51.74 118.65h-7.0966c0-0.66553-1.2226-2.9587-3.6677-6.8796-2.6043-4.1813-4.4489-6.2719-5.534-6.2719h-0.65106c0 3.2987 0.07957 7.6826 0.23872 13.152h-6.12c0.18808-4.3694 0.28213-9.2958 0.28213-14.779 0-5.2664-0.09404-9.7587-0.28213-13.477h6.12c-0.15915 4.0077-0.23872 7.7694-0.23872 11.285h0.47745c0.6366 0 2.2426-1.7796 4.8179-5.3387 2.503-3.4579 3.2065-5.44 3.2065-5.9464h7.0152c0 0.47745-1.3238 2.2787-3.9715 5.4038-2.7345 3.2264-4.7311 5.2809-5.9898 6.1634v0.32553c1.4757 0.76681 3.7979 3.6243 6.9664 8.5724 2.9515 4.6008 4.4272 7.1979 4.4272 7.7911z" aria-label="K"/>
    <path d="m75.698 107.04q0.8975 5.3948-1.915 8.9868t-7.3082 4.3399q-4.2816 0.71231-7.8024-1.54-3.5243-2.2737-4.3613-7.3046-0.90107-5.4162 1.9293-9.0331 2.8303-3.6169 7.326-4.3649 4.2602-0.70874 7.7667 1.59 3.5243 2.2737 4.3649 7.326zm-5.4806 1.5718q-0.51642-3.1042-2.3212-4.9599-1.8083-1.8772-4.1418-1.489-2.2692 0.37753-3.3759 2.5857-1.0853 2.2046-0.59377 5.1589 0.51642 3.1041 2.3248 4.9813 1.8048 1.8558 4.1382 1.4676 2.2692-0.37752 3.3545-2.5821 1.1067-2.2081 0.61518-5.1624z" aria-label="o"/>
    <path d="m112 117.39h-5.7511c0.30383-3.6604 0.45574-7.2196 0.45574-10.677 0-2.5898-0.33277-4.2826-0.9983-5.0783-0.66553-0.79574-1.7289-1.1936-3.1902-1.1936-1.1719 0-2.4089 0.42681-3.7111 1.2804-0.05787 1.8085-0.08681 3.4289-0.08681 4.8613 0 2.4162 0.0434 6.0187 0.13021 10.808h-5.8162c0.3183-3.9643 0.47745-7.82 0.47745-11.567 0-1.9387-0.27489-3.3204-0.82468-4.1451-0.53532-0.82468-1.6566-1.237-3.3638-1.237-1.577 0-2.8864 0.52808-3.9281 1.5842 0.07234 5.7294 0.10851 10.851 0.10851 15.365h-5.8379c0.26043-4.514 0.39064-8.0732 0.39064-10.677 0-3.3855-0.58049-6.0023-1.2894-9.1419l5.7818-1.2534 0.36894 2.3004h0.34723c1.8809-1.7072 4.0004-2.5609 6.3587-2.5609 2.9515 0 5.0277 0.85362 6.2285 2.5609h0.34724c2.1413-1.7072 4.2609-2.5609 6.3587-2.5609 2.4596 0 4.3115 0.53532 5.5558 1.606 1.2587 1.0562 1.8881 2.9804 1.8881 5.7728 0 0.27489-0.0145 0.80298-0.0434 1.5843-0.0289 0.76681-0.0434 1.2877-0.0434 1.5626 0 2.4162 0.0289 6.0187 0.0868 10.808z" aria-label="m"/>
    <path d="m133.28 116.5-4.9831 0.51224c-0.23644-0.60575-0.49367-1.4514-0.49768-1.9433l-0.28211 2e-3c-1.5803 1.373-3.7232 2.0705-6.4287 2.0926-1.8084 0.0147-3.3172-0.47212-4.5261-1.4606-1.1946-1.003-1.7987-2.3365-1.8123-4.0002-0.0179-2.1991 0.89329-4.0078 2.7337-5.4263 1.8549-1.4186 5.1112-2.1903 9.7691-2.3152 0.0268-0.26066 0.0393-0.50673 0.0374-0.7382-0.0127-1.5625-0.39728-2.5866-1.1536-3.0724-0.75645-0.50022-2.1402-0.74213-4.1512-0.72571-2.1846 0.01783-4.3162 0.32461-6.3948 0.92033l0.44482-3.997c1.962-0.69604 4.7371-1.0587 8.325-1.088 2.6186-0.02138 4.6414 0.51191 6.0682 1.5999 1.4413 1.0878 2.1731 3.0062 2.1956 5.755 5e-3 0.60764-0.0152 1.7146-0.0597 3.321-0.0303 1.6063-0.0432 2.677-0.0389 3.2123 0.0245 2.9948 0.27597 5.4452 0.75451 7.3511zm-5.8311-4.4666c-0.10275-1.9524-0.15991-3.6375-0.17149-5.0554-4.9334 0.0403-7.39 1.3118-7.3695 3.8148 0.0141 1.7216 1.1062 2.5736 3.2763 2.5559 1.7072-0.0139 3.1288-0.45236 4.2647-1.3153z" aria-label="a"/>
    <path d="m156.15 96.42c0 0.94043-1.0345 3.9208-3.1034 8.9413-2.3583 5.7728-3.8123 9.7081-4.3621 11.806-0.94043 3.617-2.2064 6.1128-3.7979 7.4872-1.5336 1.3311-3.834 1.9966-6.9013 1.9966l-3.0172 0.0737c1.794 0 5.2593-2.9949 6.4168-4.0222 1.1574-1.0128 2.3298-4.1537 2.3298-5.8609 0-1.7217-1.3021-5.4834-3.9064-11.285-2.6043-5.8162-3.9064-8.8617-3.9064-9.1366h6.706c0 0.50638 0.6583 2.9587 1.9749 7.357s1.9749 7.0894 1.9749 8.0732h0.30383c0-0.83915 0.59319-3.3132 1.7796-7.4221 1.2008-4.1234 1.8013-6.7928 1.8013-8.0081z" aria-label="y"/>
    <path d="m180.69 109.66c0 3.646-1.1213 6.4962-3.3638 8.5506-2.2426 2.0545-4.883 2.6942-7.9213 2.6942-2.8936 0-5.3749-0.54572-7.4438-2.4121-2.0689-1.8808-3.1034-4.5213-3.1034-7.9213 0-3.6604 1.1285-6.5251 3.3855-8.594s4.9047-3.1034 7.943-3.1034c2.8792 0 5.346 0.94766 7.4004 2.843 2.0689 1.8808 3.1034 4.5285 3.1034 7.943zm-5.6643 0.65107c0-2.0979-0.49192-3.8558-1.4758-5.2736-0.98383-1.4323-2.2643-2.1485-3.8413-2.1485-1.5336 0-2.7851 0.66553-3.7545 1.9966-0.95489 1.3311-1.4323 2.9949-1.4323 4.9915 0 2.0979 0.49191 3.863 1.4757 5.2953 0.98383 1.4179 2.3288 1.8039 3.9059 1.8039 1.5336 0 2.7133-0.34264 3.6682-1.6737 0.96937-1.3311 1.454-2.9949 1.454-4.9915zm0.71617-18.837-2e-3 3.7762h-13.668l0.0531-3.7762z" aria-label="ō"/>
   </g>
  </g>
 </g>
 <metadata>
  <rdf:RDF>
   <cc:Work rdf:about="">
    <dc:title>Komayō</dc:title>
   </cc:Work>
  </rdf:RDF>
 </metadata>
</svg>
